<?xml version="1.0" standalone="no"?><!DOCTYPE svg PUBLIC "-//W3C//DTD SVG 1.1//EN" "http://www.w3.org/Graphics/SVG/1.1/DTD/svg11.dtd"><svg t="1636974299457" class="icon" viewBox="0 0 1024 1024" version="1.1" xmlns="http://www.w3.org/2000/svg" p-id="7054" xmlns:xlink="http://www.w3.org/1999/xlink" width="200" height="200"><defs><style type="text/css"></style></defs><path d="M430.8992 539.6096h211.5072a13.4016 13.4016 0 0 0 0-26.7776H430.8992a13.4016 13.4016 0 0 0 0 26.7776z m-45.4272-69.1968c4.736 0 9.3696-1.92 12.7232-5.2608s5.2736-7.9872 5.2736-12.7232-1.92-9.3568-5.2736-12.7232a18.176 18.176 0 0 0-12.7232-5.2608c-4.736 0-9.3696 1.92-12.7232 5.2736a18.2144 18.2144 0 0 0-5.2736 12.7104 18.048 18.048 0 0 0 17.9968 17.984z m0-71.9232c4.736 0 9.3696-1.92 12.7232-5.2608s5.2736-7.9872 5.2736-12.7232-1.92-9.3568-5.2736-12.7232a18.1248 18.1248 0 0 0-12.7232-5.2608c-4.736 0-9.3696 1.92-12.7232 5.2736a18.2144 18.2144 0 0 0-5.2736 12.7104 18.048 18.048 0 0 0 17.9968 17.984z m45.4272 67.3152h213.1456c7.3856 0 13.3888-6.0032 13.3888-13.376s-6.0032-13.376-13.3888-13.376H430.8992a13.3888 13.3888 0 0 0 0 26.752z m0-71.9104h213.1456a13.3888 13.3888 0 0 0 0-26.752H430.8992c-7.3856 0-13.3888 6.0032-13.3888 13.376s6.0032 13.376 13.3888 13.376z m-43.392 115.0464a18.048 18.048 0 0 0-17.984 17.984 18.048 18.048 0 0 0 17.9968 17.984 18.048 18.048 0 0 0 17.984-17.984c0-4.736-1.92-9.3568-5.2736-12.7104a18.0864 18.0864 0 0 0-12.7232-5.2736z m278.784 55.3344c-3.5584 0-6.3616 2.3424-6.9248 2.8544l-68.3776 62.976-26.3424-21.0048c-2.24-2.0096-4.6208-3.0336-7.04-3.0336a9.344 9.344 0 0 0-5.5552 1.92c-4.3904 3.2384-3.8784 8.6656-1.4336 12.5312l31.6288 42.6112c2.4448 2.8672 5.1328 4.3136 7.9872 4.3136 4.4544 0 7.424-3.6224 7.872-4.224l73.088-85.568c4.1728-5.8496 2.0096-10.0096 0.1152-11.5328a7.8592 7.8592 0 0 0-5.0176-1.8432z m-278.784 18.2912c-4.736 0-9.3824 1.92-12.7232 5.2608a18.0864 18.0864 0 0 0-5.2736 12.7232c0 4.7232 1.92 9.3696 5.2736 12.7104 3.3536 3.3536 7.9872 5.2736 12.7232 5.2736s9.3696-1.92 12.7232-5.2736 5.2736-7.9872 5.2736-12.7104c0-4.736-1.92-9.3696-5.2736-12.7232a18.112 18.112 0 0 0-12.7232-5.2608zM511.9872 0c-282.7648 0-512 229.2352-512 512s229.2352 512 512 512 512-229.2352 512-512-229.2352-512-512-512z m198.8736 693.1328c0 14.08-11.4176 25.4848-25.4976 25.4848H337.8944a25.4976 25.4976 0 0 1-25.5104-25.4848V320.3328c0-14.08 11.4176-25.4848 25.5104-25.4848h347.456c14.0928 0 25.4976 11.4048 25.5104 25.4848v372.8zM511.9104 586.752h-81.0112c-7.3856 0-13.3888 6.0032-13.3888 13.376s6.0032 13.376 13.3888 13.376h81.0112c7.3856 0 13.3888-6.0032 13.3888-13.376s-6.0032-13.376-13.3888-13.376z" fill="#1296db" p-id="7055"></path></svg>